<svg xmlns="http://www.w3.org/2000/svg"  viewBox="0 0 64 64" width="256px" height="256px"><defs><linearGradient id="quXwW5PxWoGD8uMWN0OK0a" x1="4.086" x2="51.332" y1="54.501" y2="7.255" gradientUnits="userSpaceOnUse"><stop offset="0" stop-color="#41dfd0"/><stop offset="1" stop-color="#ee83ef"/></linearGradient></defs><path fill="url(#quXwW5PxWoGD8uMWN0OK0a)" d="M48,26a1,1,0,0,1,1-1h2V23a1,1,0,0,1,2,0v3a1,1,0,0,1-1,1H49A1,1,0,0,1,48,26ZM21.474,19a4,4,0,1,1,4,4A4,4,0,0,1,21.474,19Zm2,0a2,2,0,1,0,2-2A2,2,0,0,0,23.474,19ZM2.145,20.917a3,3,0,0,1,5.671-1.93l9.662-.149c0-.074,0-.149.006-.222L14.312,16a.99.99,0,0,1-.327-1H8a1,1,0,0,1-1-1V9.816a3,3,0,1,1,2,0V13h6c.026,0,.047.013.073.015l1.008-1.747a1,1,0,0,1,1.217-.436l3.853,1.443c.217-.141.438-.269.661-.386l.675-4.053A1,1,0,0,1,23.474,7H25V3a1,1,0,0,1,1-1H36a1,1,0,0,1,1,1V5h6.771l.416-.581a1,1,0,0,1,1.26-.314l2.9,1.452A17.362,17.362,0,0,1,58,21.171a7.772,7.772,0,0,1-1.82,5.02l3.109,7A2,2,0,0,1,57.461,36H56v3a1.009,1.009,0,0,1-.294.708L54,41.414V47a1,1,0,0,1-1,1H47c-.7,0-2.984-1.173-6.761-3.452L38,48.277v5.309l6.707,6.707A1,1,0,0,1,44,62H12a1,1,0,0,1-.707-1.707L20,51.586V37a1,1,0,0,1,1-1h3V31h-.526a1,1,0,0,1-.987-.835l-.675-4.054c-.223-.117-.444-.245-.661-.386l-3.2,1.2L18,31.991A1,1,0,0,1,17,33H11a.9.9,0,0,1-.173-.035,3,3,0,1,1,0-1.93A.9.9,0,0,1,11,31h4.991l-.041-4.5-1.869-3.236A1,1,0,0,1,14.312,22l1.372-1.13-7.864.122a2.992,2.992,0,0,1-5.675-.071ZM9,32a1,1,0,1,0-1,1A1,1,0,0,0,9,32ZM7,7A1,1,0,1,0,8,6,1,1,0,0,0,7,7ZM26,36H37V34a1,1,0,0,1,.629-.929L40.307,32H38V30h4V28.333l-1.783-2.377A.929.929,0,0,1,40,26H35.289l-.423.732a1,1,0,0,1-1.217.436L29.8,25.725c-.217.141-.438.27-.66.386l-.676,4.054a1,1,0,0,1-.986.835H26ZM36.636,16l-2.425,2H39V14H36.444l.422.732A1,1,0,0,1,36.636,16Zm-2.425,4,2.425,2a1,1,0,0,1,.23,1.272L36.444,24H39V20ZM32,44V38H30V49h6v-.586l-3.707-3.707A1,1,0,0,1,32,44ZM24.2,60H32V51H30v2a1,1,0,0,1-.247.659L26,57.948V58h-.046Zm-2.658,0L24,57.2V50h2v4.91l2-2.286V38H22V52a1,1,0,0,1-.293.707L14.414,60Zm14.747-5.293A1,1,0,0,1,36,54V51H34v9h7.586Zm2.239-11.2c-.352-.217-.689-.423-1.062-.657A1,1,0,0,1,37,42V38H34v5.586l2.8,2.8ZM41,12.32V23.667L43.8,27.4a1,1,0,0,1,.2.6v4a1,1,0,0,1-.629.929L39,34.677v6.768c.466.289.938.579,1.409.865l.006,0,.005.005a53.209,53.209,0,0,0,6.675,3.69L52,46V41a1,1,0,0,1,.293-.707l.386-.386a7.752,7.752,0,0,1-4.386-2.2,1,1,0,0,1,1.414-1.414A5.789,5.789,0,0,0,53.828,38H54V35a1,1,0,0,1,1-1h2.461l-3.375-7.594a1,1,0,0,1,.207-1.113A5.791,5.791,0,0,0,56,21.171,15.372,15.372,0,0,0,47.455,7.346l-2.138-1.07ZM27,7h.474a1,1,0,0,1,.986.835l.676,4.054c.222.116.443.245.66.386l3.853-1.443a1,1,0,0,1,1.217.436l.423.732H39a.994.994,0,0,1,.187-.581L42.343,7H36a1,1,0,0,1-1-1V4H27ZM19.162,17.406a1,1,0,0,1,.358.891,5.395,5.395,0,0,0,0,1.406c0,.023,0,.046,0,.069s.007.022.007.034a.325.325,0,0,1-.008.043.978.978,0,0,1-.064.345l-.006.011a.98.98,0,0,1-.18.276.754.754,0,0,1-.055.058.664.664,0,0,1-.051.055L16.237,23l1.153,2,3.551-1.331a1,1,0,0,1,.949.135,5.965,5.965,0,0,0,1.217.71,1,1,0,0,1,.592.755L24.32,29h2.307l.622-3.732a1,1,0,0,1,.592-.755,6.026,6.026,0,0,0,1.217-.71,1,1,0,0,1,.948-.135L33.558,25l1.152-2-2.925-2.407a1,1,0,0,1-.357-.891,5.395,5.395,0,0,0,0-1.406,1,1,0,0,1,.357-.891L34.71,15l-1.152-2-3.552,1.331a1,1,0,0,1-.948-.135,6.026,6.026,0,0,0-1.217-.71,1,1,0,0,1-.592-.755L26.627,9H24.321L23.7,12.732a1,1,0,0,1-.592.755,5.965,5.965,0,0,0-1.217.71,1,1,0,0,1-.949.135L17.39,13l-1.153,2Zm-15.113,2.9h0a1,1,0,0,0,1.258.646,1,1,0,1,0-.612-1.9,1,1,0,0,0-.646,1.258ZM26,42H24v2h2Zm0,4H24v2h2Zm6-16H30v2h2Zm4,0H34v2h2Zm9-18H43v4h2Zm0,6H43v2h2Zm0,4H43v2h2Z"/></svg>