<svg xmlns="http://www.w3.org/2000/svg"  viewBox="0 0 256 256" width="256px" height="256px"><path fill="#846f75" d="M50.066,123.9c.072.006.142.009.212.009a2.5,2.5,0,0,0,2.489-2.291,75.794,75.794,0,0,1,55.006-66.367,2.5,2.5,0,1,0-1.341-4.816A80.809,80.809,0,0,0,47.784,121.2,2.5,2.5,0,0,0,50.066,123.9Z"/><path fill="#846f75" d="M134.307,52.761a75.781,75.781,0,0,1,66.442,55.01,2.5,2.5,0,1,0,4.816-1.341,80.8,80.8,0,0,0-70.844-58.652,2.5,2.5,0,1,0-.414,4.983Z"/><path fill="#846f75" d="M62.855,121.149a2.5,2.5,0,0,0,2.227,2.747,2.587,2.587,0,0,0,.263.013,2.5,2.5,0,0,0,2.483-2.24,60.9,60.9,0,0,1,44.131-52.011,2.5,2.5,0,1,0-1.326-4.82A65.93,65.93,0,0,0,62.855,121.149Z"/><path fill="#846f75" d="M122.08,188.213a60.891,60.891,0,0,1-52.332-43.846,2.5,2.5,0,1,0-4.812,1.354,65.919,65.919,0,0,0,56.66,47.468c.082.008.164.012.245.012a2.5,2.5,0,0,0,.239-4.988Z"/><path fill="#846f75" d="M186.343,111.959a2.5,2.5,0,0,0,2.409,1.838,2.465,2.465,0,0,0,.664-.091,2.5,2.5,0,0,0,1.747-3.073A65.878,65.878,0,0,0,134.5,62.82a2.5,2.5,0,0,0-.492,4.977A60.846,60.846,0,0,1,186.343,111.959Z"/><path fill="#846f75" d="M121.7,203.24a75.779,75.779,0,0,1-66.451-55.013,2.5,2.5,0,1,0-4.816,1.341A80.458,80.458,0,0,0,75,188.5H31.25a10,10,0,0,0,0,20h89.833a3.263,3.263,0,0,0,2.9-2.562A2.5,2.5,0,0,0,121.7,203.24ZM26.25,198.5a5.006,5.006,0,0,1,5-5H81.3a80.808,80.808,0,0,0,18.818,10H31.25A5.006,5.006,0,0,1,26.25,198.5Z"/><path fill="#846f75" d="M231.926,191.535a9.921,9.921,0,0,0-7.176-3.035H181.014a80.629,80.629,0,0,0,27.175-53.4,2.5,2.5,0,0,0-4.98-.438,75.683,75.683,0,0,1-29.537,53.419,2.524,2.524,0,0,0-.421.418h-20.14a65.478,65.478,0,0,0,40.043-53.739,2.5,2.5,0,0,0-4.974-.512,60.488,60.488,0,0,1-41.832,51.408,4.019,4.019,0,0,0,1.235,7.843H224.75a5,5,0,0,1,5,5.155,5.2,5.2,0,0,1-5.31,4.845H146.055a2.5,2.5,0,0,0,0,5h78.382a10.236,10.236,0,0,0,10.308-9.7A9.931,9.931,0,0,0,231.926,191.535Z"/><path fill="#65c1d6" d="M136.933,83.313a7.451,7.451,0,0,1-5.3-2.2L113.764,63.252a7.5,7.5,0,0,1,0-10.606l17.865-17.865a7.5,7.5,0,1,1,10.606,10.607L129.674,57.949l12.561,12.562a7.5,7.5,0,0,1-5.3,12.8Zm0-45.729a2.488,2.488,0,0,0-1.769.732L117.3,56.182a2.5,2.5,0,0,0,0,3.535l17.865,17.864a2.558,2.558,0,0,0,3.535,0,2.5,2.5,0,0,0,0-3.534l-14.329-14.33a2.5,2.5,0,0,1,0-3.535L138.7,41.852a2.5,2.5,0,0,0-1.767-4.268Z"/><path fill="#65c1d6" d="M119.067,223.416a7.5,7.5,0,0,1-5.3-12.8l12.561-12.561-12.561-12.562a7.5,7.5,0,1,1,10.606-10.605l17.865,17.864a7.5,7.5,0,0,1,0,10.606l-17.865,17.865A7.451,7.451,0,0,1,119.067,223.416Zm0-45.729a2.5,2.5,0,0,0-1.767,4.266l14.329,14.33a2.5,2.5,0,0,1,0,3.535L117.3,214.148a2.5,2.5,0,0,0,0,3.535,2.557,2.557,0,0,0,3.536,0L138.7,199.818a2.5,2.5,0,0,0,0-3.535l-17.865-17.864A2.484,2.484,0,0,0,119.067,177.687Z"/><path fill="#65c1d6" d="M57.949,144.433a7.452,7.452,0,0,1-5.3-2.2L34.781,124.371a7.5,7.5,0,1,1,10.607-10.606l12.561,12.561,12.562-12.561a7.5,7.5,0,1,1,10.605,10.606L63.252,142.236A7.451,7.451,0,0,1,57.949,144.433ZM40.084,116.567a2.5,2.5,0,0,0-1.768,4.269L56.182,138.7a2.56,2.56,0,0,0,3.535,0l17.864-17.865a2.5,2.5,0,0,0,0-3.535,2.554,2.554,0,0,0-3.534,0l-14.33,14.329a2.5,2.5,0,0,1-3.535,0L41.852,117.3A2.483,2.483,0,0,0,40.084,116.567Z"/><path fill="#65c1d6" d="M215.916,144.433a7.452,7.452,0,0,1-5.3-2.2l-12.561-12.561-12.562,12.561a7.5,7.5,0,1,1-10.605-10.606l17.864-17.865a7.5,7.5,0,0,1,10.606,0l17.865,17.865a7.5,7.5,0,0,1-5.3,12.8Zm-17.865-20.794a2.492,2.492,0,0,1,1.767.732l14.33,14.329a2.556,2.556,0,0,0,3.535,0,2.5,2.5,0,0,0,0-3.536L199.818,117.3a2.56,2.56,0,0,0-3.535,0l-17.864,17.865a2.5,2.5,0,0,0,0,3.535,2.554,2.554,0,0,0,3.534,0l14.33-14.329A2.493,2.493,0,0,1,198.051,123.639Z"/></svg>