<svg xmlns="http://www.w3.org/2000/svg"  viewBox="0 0 256 256" width="256px" height="256px"><path fill="#facb35" d="M69.2,2.5c-35.9,0-65,29.1-65,65c0,35.9,29.1,65,65,65c35.9,0,65-29.1,65-65C134.2,31.6,105.1,2.5,69.2,2.5z"/><path fill="#facb35" d="M186.8,123.5c-35.9,0-65,29.1-65,65s29.1,65,65,65s65-29.1,65-65C251.8,152.6,222.7,123.5,186.8,123.5z"/><path fill="#fcac27" d="M69.2,13.5c-29.8,0-54,24.2-54,54s24.2,54,54,54s54-24.2,54-54c0,0,0,0,0,0C123.1,37.7,99,13.6,69.2,13.5z"/><path fill="#fcac27" d="M186.8,134.5c-29.8,0-54,24.2-54,54s24.2,54,54,54s54-24.2,54-54C240.8,158.7,216.6,134.5,186.8,134.5z"/><path fill="#45bdf0" d="M193,103.5l18.8-18.8c2.5-2.5,2.5-6.7,0-9.2c0,0-0.1-0.1-0.1-0.1c-2.7-2.4-6.8-2.2-9.3,0.3l-7.5,7.5V63.8 c0-17.3-12.8-31.9-29.9-34.1l-3.4-0.4c-0.9-0.1-1.7,0.5-1.8,1.4c-0.1,0.7,0.3,1.4,1,1.7l0,0c12.8,5.3,21.1,17.9,21.1,31.7v19.2 l-7.5-7.5c-2.5-2.6-6.6-2.7-9.3-0.3c-2.6,2.5-2.7,6.6-0.3,9.2c0,0,0.1,0.1,0.1,0.1l18.8,18.8C186.3,106.1,190.4,106.1,193,103.5z"/><path fill="#45bdf0" d="M63.1,152.6l-18.8,18.8c-2.5,2.5-2.5,6.7,0,9.2c0,0,0.1,0.1,0.1,0.1c2.7,2.4,6.8,2.2,9.3-0.3l7.5-7.5v19.4 c0,17.3,12.8,31.9,29.9,34.1l3.4,0.4c0.9,0.1,1.7-0.5,1.8-1.4c0.1-0.7-0.3-1.4-1-1.7l0,0c-12.8-5.3-21.1-17.9-21.1-31.7V173 l7.5,7.5c2.5,2.6,6.6,2.7,9.3,0.3c2.6-2.5,2.7-6.6,0.3-9.2c0,0-0.1-0.1-0.1-0.1l-18.8-18.8C69.8,150.1,65.7,150.1,63.1,152.6z"/><path d="M76.2,95.4H53.7c-1.4,0-2.5-1.1-2.5-2.5s1.1-2.5,2.5-2.5h22.5c5.6,0,10.2-4.6,10.2-10.2c0-5.6-4.6-10.2-10.2-10.2H62.1 c-8.4,0-15.2-6.8-15.2-15.2s6.8-15.2,15.2-15.2h19.9c1.4,0,2.5,1.1,2.5,2.5s-1.1,2.5-2.5,2.5H62.1c-5.6,0-10.2,4.6-10.2,10.2 S56.5,65,62.1,65h14.1c8.4,0,15.2,6.8,15.2,15.2S84.6,95.4,76.2,95.4z"/><path d="M69.2,104.1c-1.4,0-2.5-1.1-2.5-2.5V33.4c0-1.4,1.1-2.5,2.5-2.5s2.5,1.1,2.5,2.5v68.2C71.7,103,70.6,104.1,69.2,104.1z"/><path d="M69.2,124C38,124,12.7,98.7,12.7,67.5S38,11,69.2,11s56.5,25.3,56.5,56.5l0,0C125.6,98.7,100.4,124,69.2,124z M69.2,16 c-28.4,0-51.5,23.1-51.5,51.5S40.7,119,69.2,119s51.5-23.1,51.5-51.5c0,0,0,0,0,0C120.6,39.1,97.6,16.1,69.2,16z"/><path d="M69.2,135c-37.3,0-67.5-30.2-67.5-67.5S31.9,0,69.2,0c37.3,0,67.5,30.2,67.5,67.5C136.7,104.8,106.5,135,69.2,135z M69.2,5C34.7,5,6.7,33,6.7,67.5s28,62.5,62.5,62.5c34.5,0,62.5-28,62.5-62.5C131.7,33,103.7,5,69.2,5z"/><path d="M186.8,245c-31.2,0-56.5-25.3-56.5-56.5s25.3-56.5,56.5-56.5s56.5,25.3,56.5,56.5c0,0,0,0,0,0 C243.3,219.7,218,244.9,186.8,245z M186.8,137c-28.4,0-51.5,23.1-51.5,51.5s23.1,51.5,51.5,51.5s51.5-23.1,51.5-51.5c0,0,0,0,0,0 C238.3,160.1,215.2,137,186.8,137z"/><path d="M186.8,256c-37.3,0-67.5-30.2-67.5-67.5s30.2-67.5,67.5-67.5s67.5,30.2,67.5,67.5C254.3,225.8,224.1,256,186.8,256z M186.8,126c-34.5,0-62.5,28-62.5,62.5s28,62.5,62.5,62.5s62.5-28,62.5-62.5l0,0C249.3,154,221.3,126,186.8,126L186.8,126z"/><path d="M188.4,107.9c-2.4,0-4.7-0.9-6.4-2.6l-18.8-18.8c-3.5-3.5-3.5-9.2,0-12.7c0.1-0.1,0.1-0.1,0.2-0.2 c3.7-3.3,9.3-3.1,12.7,0.4l3.2,3.2V64.1c0-12.9-7.7-24.5-19.6-29.4c-2.1-0.9-3.1-3.3-2.2-5.4c0.7-1.7,2.5-2.8,4.3-2.5l3.4,0.4 c18.4,2.4,32.1,18.1,32.1,36.6v13.4l3.2-3.2c3.5-3.5,9.1-3.7,12.7-0.4c3.6,3.4,3.8,9.1,0.4,12.7c-0.1,0.1-0.1,0.1-0.2,0.2 l-18.8,18.8C193,107,190.7,108,188.4,107.9z M169.5,76.2c-1,0-1.9,0.4-2.7,1c-1.6,1.5-1.7,4-0.2,5.7c0,0,0.1,0.1,0.1,0.1 l18.8,18.8c1.6,1.6,4.1,1.6,5.7,0c0,0,0,0,0,0L210,83c1.6-1.6,1.6-4.1,0-5.7c0,0-0.1-0.1-0.1-0.1c-1.7-1.5-4.2-1.3-5.8,0.3 l-7.5,7.5c-1,1-2.6,1-3.5,0c-0.5-0.5-0.7-1.1-0.7-1.8V63.8c0-15.3-10.8-28.4-25.8-31.3c11.1,6.7,17.8,18.6,17.8,31.6v19.2 c0,1.4-1.1,2.5-2.5,2.5c-0.7,0-1.3-0.3-1.8-0.7l-7.5-7.5C171.8,76.7,170.6,76.2,169.5,76.2z"/><path d="M94.8,229.4c-0.2,0-0.4,0-0.6,0l-3.4-0.4c-18.4-2.4-32.1-18.1-32.1-36.6V179l-3.2,3.2c-3.5,3.5-9.1,3.7-12.7,0.4 c-3.6-3.4-3.8-9.1-0.4-12.7c0.1-0.1,0.1-0.1,0.2-0.2l18.8-18.8c3.5-3.5,9.2-3.5,12.7,0l18.8,18.8c3.5,3.5,3.5,9.2,0,12.7 c-0.1,0.1-0.1,0.1-0.2,0.2c-3.7,3.3-9.3,3.1-12.7-0.4l-3.2-3.2v13.1c0,12.9,7.7,24.5,19.6,29.4c2.1,0.9,3.1,3.3,2.2,5.4 C97.9,228.4,96.4,229.4,94.8,229.4L94.8,229.4z M61.2,170.5c1.4,0,2.5,1.1,2.5,2.5v19.4c0,15.3,10.8,28.4,25.8,31.3 C78.5,217,71.7,205,71.7,192.1V173c0-1.4,1.1-2.5,2.5-2.5c0.7,0,1.3,0.3,1.8,0.7l7.5,7.5c1.5,1.6,4.1,1.7,5.8,0.3 c1.6-1.5,1.7-4,0.2-5.7c0,0-0.1-0.1-0.1-0.1l-18.8-18.8c-1.6-1.6-4.1-1.6-5.7,0l-18.8,18.8c-1.6,1.6-1.6,4.1,0,5.7 c0,0,0.1,0.1,0.1,0.1c1.7,1.5,4.2,1.3,5.8-0.3l7.5-7.5C59.9,170.7,60.5,170.5,61.2,170.5z"/><path d="M190.4,221.6c-18.3,0-33.1-14.8-33.1-33c0-18.3,14.8-33.1,33-33.1c5.5,0,10.8,1.4,15.7,3.9c1.2,0.7,1.7,2.2,1,3.4 s-2.2,1.7-3.4,1l0,0c-13.6-7.3-30.6-2.2-38,11.4c-7.3,13.6-2.2,30.6,11.4,38c8.3,4.5,18.3,4.5,26.5,0c1.2-0.7,2.7-0.2,3.4,1 s0.2,2.7-1,3.4C201.2,220.2,195.8,221.5,190.4,221.6z"/><path d="M191.2,183.1h-37.7c-1.4,0-2.5-1.1-2.5-2.5s1.1-2.5,2.5-2.5h37.7c1.4,0,2.5,1.1,2.5,2.5S192.6,183.1,191.2,183.1z"/><path d="M191.2,198.8h-37.7c-1.4,0-2.5-1.1-2.5-2.5s1.1-2.5,2.5-2.5h37.7c1.4,0,2.5,1.1,2.5,2.5S192.6,198.8,191.2,198.8z"/></svg>