<svg xmlns="http://www.w3.org/2000/svg"  viewBox="0 0 50 50" width="250px" height="250px"><path d="M 38.914063 48 C 33.777344 48 31.207031 46.167969 29.433594 41.238281 L 25.28125 29.988281 L 18.046875 48 L 7.464844 48 L 21.007813 17.347656 L 20.234375 15.332031 C 18.492188 10.949219 17.722656 10.523438 14.917969 10.523438 C 14.753906 10.589844 14.539063 10.644531 14.164063 10.707031 L 13 10.898438 L 13 2.734375 L 14.214844 2.414063 C 15.105469 2.175781 15.75 2 16.9375 2 C 23.839844 2 26.265625 5.226563 29.640625 14.316406 L 38.125 36.878906 C 38.96875 39.160156 39.625 39.503906 41.445313 39.503906 C 41.828125 39.503906 42.554688 39.351563 42.792969 39.300781 L 44 39.046875 L 44 47.253906 L 43.300781 47.472656 C 42.304688 47.789063 40.542969 48 38.914063 48 Z"/></svg>