<svg xmlns="http://www.w3.org/2000/svg"  viewBox="0 0 48 48" width="240px" height="240px"><path fill="#009688" d="M4,10h40v25H4V10z"/><path fill="#00796b" d="M41,14v21H7V14 M44,12H4v23h40V12z"/><path fill="#dd7c12" d="M42,12v23H6V12H42 M44,10H4v25h40V10z"/><path fill="#773d04" d="M46,38v-2c0-1.1-0.9-2-2-2H4c-1.1,0-2,0.9-2,2v2H46z"/><polygon fill="#fff" points="19,34 12,34 12,32 19,32 20,33"/><path fill="#fff" d="M12.894,21.85h0.032l1.056-2.714h1.754l-1.882,3.85l2.01,3.913h-1.828l-1.088-2.772h-0.032 l-1.088,2.772h-1.765l1.931-3.913l-1.882-3.85h1.743L12.894,21.85z"/><path fill="#fff" d="M19.286,22.58h1.632v1.354h-1.632v2.186h-1.434v-2.186h-1.637V22.58h1.637v-2.111h1.434V22.58z"/><path fill="#fff" d="M24.207,22.463h0.032l1.296-3.327h1.647l-2.218,5.001v2.762H23.45v-2.857l-2.181-4.905h1.658 L24.207,22.463z"/><path fill="#fff" d="M31.98,22.862h-4.116v-1.21h4.116V22.862z M31.98,25.166h-4.116v-1.21h4.116V25.166z"/><path fill="#fff" d="M34.736,25.689h2.98v1.21H33.03v-0.763l2.911-5.79h-2.942v-1.21h4.67v0.736L34.736,25.689z"/></svg>